<?xml version="1.0" standalone="no"?>
<!DOCTYPE svg PUBLIC "-//W3C//DTD SVG 20010904//EN"
 "http://www.w3.org/TR/2001/REC-SVG-20010904/DTD/svg10.dtd">
<svg version="1.0" xmlns="http://www.w3.org/2000/svg"
 width="5870.000000pt" height="4842.000000pt" viewBox="0 0 5870.000000 4842.000000"
 preserveAspectRatio="xMidYMid meet">

<g transform="translate(0.000000,4842.000000) scale(0.100000,-0.100000)"
fill="#000000" stroke="none">
<path d="M10225 33678 c-2 -7 -6 -22 -8 -33 -3 -14 -5 -11 -6 9 l-1 29 -157
-6 c-87 -3 -168 -9 -179 -12 -21 -6 -22 -14 -28 -183 -4 -98 -12 -249 -19
-337 -13 -172 -13 -348 0 -570 4 -77 5 -201 1 -275 -8 -135 -3 -1450 7 -2040
3 -173 10 -403 17 -510 7 -107 11 -249 9 -315 -6 -173 -4 -1187 3 -1470 3
-132 8 -357 11 -500 6 -274 13 -520 20 -670 2 -49 6 -175 9 -280 3 -104 8
-215 11 -245 3 -30 7 -127 10 -215 11 -364 25 -733 30 -770 6 -53 24 -371 30
-560 3 -82 10 -220 15 -305 20 -314 30 -508 34 -611 2 -59 8 -128 14 -155 6
-27 16 -177 23 -334 6 -157 12 -310 14 -340 4 -81 17 -289 20 -335 14 -181 57
-760 59 -800 2 -27 6 -108 10 -180 4 -71 12 -188 17 -260 6 -71 11 -146 11
-165 0 -19 4 -64 9 -100 7 -53 18 -241 22 -385 1 -65 17 -339 28 -500 7 -109
17 -180 26 -199 19 -36 32 -220 33 -444 l0 -173 133 6 c72 4 220 8 327 9 199
4 252 12 360 59 19 8 58 22 85 30 49 15 119 41 295 107 47 17 108 40 136 50
28 10 69 27 92 39 23 12 47 21 55 21 8 0 36 12 63 26 68 36 132 55 137 40 4
-11 500 225 560 266 15 11 53 30 85 43 73 30 455 224 504 256 20 13 73 44 118
69 45 25 101 60 125 78 24 17 47 32 50 32 4 0 32 18 64 40 31 22 62 40 67 40
6 0 32 16 59 35 29 20 53 31 59 26 6 -5 38 -12 71 -15 33 -4 76 -11 95 -16 47
-12 303 -41 392 -44 40 -2 145 -10 233 -19 423 -43 693 -62 1060 -72 105 -3
242 -8 305 -12 63 -4 135 -7 160 -8 884 -25 2869 -25 2909 -1 4 3 108 10 231
16 124 6 254 18 290 26 191 43 515 83 678 84 85 0 92 1 92 20 0 11 3 20 6 20
3 0 52 -38 109 -84 56 -47 116 -93 132 -103 40 -25 120 -83 157 -114 17 -14
49 -38 71 -53 22 -15 56 -38 75 -51 139 -98 244 -165 257 -165 6 0 25 -11 41
-25 16 -13 49 -34 73 -45 54 -26 118 -62 184 -105 28 -18 115 -70 195 -116 80
-45 173 -100 208 -121 66 -40 78 -44 84 -28 2 5 35 -6 73 -24 210 -103 346
-166 355 -166 6 0 31 -11 57 -24 74 -38 188 -86 204 -86 8 0 23 -6 34 -14 11
-7 47 -23 80 -36 52 -20 82 -23 215 -26 85 -1 213 -5 283 -9 71 -3 126 -2 123
3 -11 18 14 560 28 604 14 43 18 100 39 563 4 83 9 170 12 195 3 25 7 135 10
245 3 110 8 218 10 240 3 22 17 229 30 460 14 231 32 526 40 655 8 129 17 323
21 430 3 107 9 200 12 205 5 9 14 183 37 770 2 55 11 213 19 350 9 138 18 320
21 405 14 419 26 696 30 710 2 8 11 233 20 500 16 537 25 802 29 900 2 36 6
198 10 360 4 162 9 356 12 430 3 74 7 626 9 1227 2 600 8 1145 13 1210 12 144
10 -60 19 1508 9 1538 9 1586 -7 1845 -6 107 -14 241 -17 297 -4 82 -8 103
-22 108 -9 4 -75 9 -148 12 l-131 6 -5 -24 c-4 -22 -4 -22 -6 4 -1 26 -3 27
-61 27 -47 0 -67 -5 -96 -25 -20 -14 -43 -25 -50 -25 -8 0 -35 -11 -61 -25
-74 -39 -193 -91 -250 -109 -29 -10 -67 -27 -85 -40 -45 -30 -131 -75 -263
-137 -232 -108 -381 -183 -410 -204 -49 -36 -479 -265 -498 -265 -18 0 -70
-26 -187 -95 -36 -21 -83 -47 -105 -58 -21 -11 -51 -27 -65 -37 -14 -9 -59
-37 -100 -60 -41 -24 -94 -55 -117 -69 -23 -14 -65 -39 -93 -56 -62 -36 -128
-77 -197 -121 -29 -19 -79 -51 -110 -71 -32 -20 -70 -45 -85 -55 -15 -10 -37
-18 -48 -18 -32 0 -73 -25 -100 -61 l-24 -34 -6 25 c-6 24 -9 25 -130 32 -195
12 -353 32 -645 82 -77 14 -192 27 -256 31 -64 3 -130 10 -147 14 -16 5 -121
16 -233 25 -112 9 -252 21 -310 26 -185 18 -584 36 -1239 58 -316 10 -1305 9
-1550 -2 -271 -12 -366 -12 -480 3 -128 17 -405 8 -690 -24 -124 -14 -236 -28
-250 -31 -14 -3 -90 -17 -170 -30 -193 -31 -377 -68 -386 -77 -10 -9 -50 17
-93 60 -36 37 -68 53 -107 53 -13 0 -61 21 -106 46 -129 72 -180 99 -364 194
-95 49 -180 93 -190 99 -21 12 -378 185 -526 255 -53 25 -107 46 -120 46 -13
0 -56 16 -96 35 -41 19 -106 49 -145 66 -40 17 -148 68 -242 114 -93 46 -203
97 -242 114 -40 17 -104 45 -141 61 -38 17 -75 30 -83 30 -8 0 -24 7 -37 15
-12 9 -41 22 -64 30 -69 22 -165 62 -285 121 -62 30 -117 54 -122 54 -14 0
-159 51 -256 90 -44 18 -104 40 -133 51 -29 10 -62 25 -74 34 -28 19 -157 21
-163 3z m13102 -305 c-2 -16 -4 -5 -4 22 0 28 2 40 4 28 2 -13 2 -35 0 -50z
m0 -65 c-3 -7 -5 -2 -5 12 0 14 2 19 5 13 2 -7 2 -19 0 -25z m-12276 -759
c118 -50 354 -151 524 -224 171 -73 380 -162 465 -198 722 -302 1401 -600
1438 -632 1 -1 -5 -47 -14 -101 -9 -54 -18 -114 -21 -132 -3 -18 -9 -34 -13
-37 -4 -3 -151 54 -326 126 -176 72 -411 168 -524 214 -431 175 -769 315
-1075 447 -121 53 -328 141 -460 197 l-240 102 1 117 c2 198 3 212 18 212 7 0
110 -41 227 -91z m11760 -106 c1 -27 2 -101 3 -165 l1 -117 -650 -324 c-357
-179 -672 -335 -698 -347 -26 -11 -137 -64 -245 -117 -334 -162 -634 -304
-637 -301 -1 2 -7 35 -13 73 -6 39 -15 97 -21 130 -6 43 -6 63 2 72 23 23 465
257 872 460 226 113 624 312 885 444 261 131 481 238 488 239 8 0 12 -17 13
-47z m-12644 -635 c-2 -18 -4 -6 -4 27 0 33 2 48 4 33 2 -15 2 -42 0 -60z
m-10 -190 c-2 -18 -4 -4 -4 32 0 36 2 50 4 33 2 -18 2 -48 0 -65z m6191 2 c87
-5 270 -11 407 -14 138 -3 291 -8 340 -11 50 -3 169 -7 266 -10 97 -3 205 -8
240 -10 35 -2 129 -6 209 -10 249 -10 793 -36 835 -40 22 -2 83 -8 135 -13 52
-6 122 -10 155 -11 33 -1 182 -13 330 -26 149 -13 309 -27 358 -31 52 -4 87
-11 88 -18 0 -6 2 -207 4 -446 2 -239 6 -496 9 -570 3 -74 8 -220 11 -325 3
-104 10 -300 16 -435 17 -441 24 -1289 24 -2895 0 -1548 -5 -2113 -24 -2605
-6 -135 -12 -326 -15 -425 -17 -550 -17 -554 -31 -785 -2 -41 -9 -181 -15
-310 -26 -563 -30 -652 -40 -780 -5 -74 -10 -178 -10 -230 -1 -144 7 -135
-123 -148 -62 -6 -177 -16 -257 -22 -80 -6 -237 -20 -350 -31 -113 -10 -277
-23 -365 -29 -88 -5 -205 -14 -260 -19 -55 -6 -140 -13 -190 -15 -380 -20
-649 -37 -668 -41 -66 -14 -1294 -22 -1567 -10 -343 15 -1071 98 -1410 161
-47 8 -98 18 -115 21 -16 3 -44 14 -61 24 -17 10 -43 19 -57 19 -24 0 -25 4
-32 68 -18 184 -21 720 -18 2947 2 1331 5 2447 7 2480 5 85 15 561 21 1025 3
217 8 458 10 535 2 77 7 334 10 570 3 237 8 531 10 655 2 124 5 439 6 700 1
261 5 554 10 650 9 184 28 432 33 437 24 24 1690 42 2074 23z m-5383 -115 c99
-50 243 -119 320 -154 77 -36 181 -83 230 -106 50 -23 155 -70 235 -105 731
-317 1108 -488 1442 -655 l137 -69 -6 -101 c-3 -55 -11 -105 -17 -112 -22 -23
-733 231 -1371 492 -104 43 -210 86 -235 95 -59 24 -294 128 -406 180 -49 23
-127 59 -174 80 -47 21 -149 69 -226 108 l-140 70 3 104 c5 154 14 269 22 266
3 -2 87 -44 186 -93z m12402 -37 c-2 -18 -4 -4 -4 32 0 36 2 50 4 33 2 -18 2
-48 0 -65z m-13220 -40 c-3 -7 -5 -2 -5 12 0 14 2 19 5 13 2 -7 2 -19 0 -25z
m12705 -173 l2 -179 -98 -58 c-192 -114 -542 -300 -801 -425 -545 -263 -1189
-543 -1250 -543 -20 0 -22 8 -29 120 l-5 95 87 52 c277 164 614 346 1135 612
245 125 279 143 457 241 58 31 141 77 185 100 44 24 129 74 190 111 60 38 113
65 118 60 4 -4 8 -88 9 -186z m-12715 8 c-2 -21 -4 -4 -4 37 0 41 2 58 4 38 2
-21 2 -55 0 -75z m13240 15 c-2 -13 -4 -5 -4 17 -1 22 1 32 4 23 2 -10 2 -28
0 -40z m-13240 -95 c-3 -10 -5 -4 -5 12 0 17 2 24 5 18 2 -7 2 -21 0 -30z m0
-115 c-2 -18 -4 -4 -4 32 0 36 2 50 4 33 2 -18 2 -48 0 -65z m-10 -160 c-3 -8
-6 -5 -6 6 -1 11 2 17 5 13 3 -3 4 -12 1 -19z m0 -491 c-1 -84 -3 -12 -3 158
0 171 2 239 3 152 2 -87 2 -227 0 -310z m893 -183 c52 -14 147 -39 210 -55
450 -118 1044 -305 1848 -583 190 -66 175 -51 170 -161 -1 -51 -7 -97 -11
-101 -8 -9 -74 8 -317 79 -139 41 -448 130 -540 156 -64 19 -234 69 -340 101
-124 38 -285 86 -355 105 -356 98 -449 123 -748 201 -148 39 -180 51 -186 68
-6 15 -6 241 -1 262 0 0 39 -10 88 -23 48 -13 130 -35 182 -49z m11844 -202
c0 -64 -2 -125 -2 -134 -2 -23 -21 -32 -128 -64 -49 -14 -116 -35 -149 -44
-194 -58 -531 -168 -690 -225 -71 -26 -294 -103 -495 -172 -676 -231 -640
-220 -650 -203 -15 23 -12 186 3 198 37 29 1046 424 1337 522 195 66 743 239
760 239 13 1 15 -18 14 -117z m-12747 66 c-3 -8 -6 -5 -6 6 -1 11 2 17 5 13 3
-3 4 -12 1 -19z m0 -50 c-3 -8 -6 -5 -6 6 -1 11 2 17 5 13 3 -3 4 -12 1 -19z
m860 -827 c281 -57 495 -97 668 -126 384 -65 852 -163 1095 -230 30 -8 66 -17
80 -21 85 -21 388 -118 396 -127 8 -8 6 -199 -2 -244 -4 -22 -12 -33 -23 -33
-9 0 -78 14 -152 31 -160 37 -665 144 -944 200 -221 44 -280 55 -547 99 -101
17 -203 35 -228 40 -25 5 -153 30 -285 55 -132 26 -249 49 -260 51 -19 5 -20
13 -19 152 0 178 1 192 14 192 5 0 98 -18 207 -39z m12440 -743 c-1 -139 -2
-28 -2 247 0 275 1 389 2 253 2 -136 2 -361 0 -500z m-562 460 l0 -167 -60
-16 c-122 -31 -457 -104 -680 -149 -126 -25 -286 -59 -355 -76 -221 -52 -491
-118 -650 -160 -280 -73 -329 -84 -336 -78 -3 4 -7 68 -8 142 l-2 135 40 17
c313 126 762 251 1251 349 185 37 291 60 540 119 127 30 237 54 245 53 13 -2
15 -28 15 -169z m-11894 -738 c239 -44 264 -48 374 -64 213 -32 319 -48 575
-87 146 -22 321 -49 390 -59 154 -23 464 -77 710 -124 102 -20 187 -36 190
-36 7 0 5 -238 -2 -246 -4 -3 -80 1 -170 10 -283 27 -1128 115 -1263 131 -404
47 -967 136 -989 156 -5 5 -10 85 -11 179 -1 153 1 170 16 170 9 0 90 -13 180
-30z m11891 -150 c-2 -14 -3 -89 -3 -166 0 -101 -3 -145 -12 -151 -41 -32
-766 -158 -1137 -197 -30 -4 -201 -24 -380 -46 -497 -60 -522 -62 -531 -53 -9
9 -15 231 -6 239 10 10 654 147 812 173 33 5 161 28 285 50 124 23 304 55 400
71 96 17 195 35 220 41 25 5 104 23 175 39 158 35 181 35 177 0z m-12735 -12
c-3 -7 -5 -2 -5 12 0 14 2 19 5 13 2 -7 2 -19 0 -25z m0 -40 c-3 -8 -6 -5 -6
6 -1 11 2 17 5 13 3 -3 4 -12 1 -19z m13290 -45 c-3 -10 -5 -4 -5 12 0 17 2
24 5 18 2 -7 2 -21 0 -30z m-13280 -146 c-2 -23 -3 -1 -3 48 0 50 1 68 3 42 2
-26 2 -67 0 -90z m10 -199 c-2 -24 -4 -7 -4 37 0 44 2 63 4 43 2 -21 2 -57 0
-80z m13240 -285 c-2 -16 -4 -5 -4 22 0 28 2 40 4 28 2 -13 2 -35 0 -50z
m-13220 -10 c-3 -10 -5 -4 -5 12 0 17 2 24 5 18 2 -7 2 -21 0 -30z m0 -55 c-3
-7 -5 -2 -5 12 0 14 2 19 5 13 2 -7 2 -19 0 -25z m13210 -140 c-2 -18 -4 -6
-4 27 0 33 2 48 4 33 2 -15 2 -42 0 -60z m-13200 -120 c-2 -35 -3 -7 -3 62 0
69 1 97 3 63 2 -35 2 -91 0 -125z m1054 31 c854 -6 1500 -31 1905 -74 l50 -6
-2 -117 -1 -117 -194 1 c-518 2 -2209 29 -2209 35 0 5 -1 67 -3 139 -2 109 0
133 12 140 9 5 18 7 22 5 3 -2 192 -5 420 -6z m12136 -106 c-3 -10 -5 -4 -5
12 0 17 2 24 5 18 2 -7 2 -21 0 -30z m-13190 -15 c-3 -8 -6 -5 -6 6 -1 11 2
17 5 13 3 -3 4 -12 1 -19z m12678 -170 l-2 -143 -779 -12 c-428 -6 -887 -14
-1019 -19 l-241 -7 0 121 -1 121 41 5 c363 46 929 71 1652 74 l350 2 -1 -142z
m-12688 55 c-3 -10 -5 -4 -5 12 0 17 2 24 5 18 2 -7 2 -21 0 -30z m0 -80 c-3
-10 -5 -2 -5 17 0 19 2 27 5 18 2 -10 2 -26 0 -35z m0 -45 c-3 -8 -6 -5 -6 6
-1 11 2 17 5 13 3 -3 4 -12 1 -19z m13210 -85 c-2 -21 -4 -6 -4 32 0 39 2 55
4 38 2 -18 2 -50 0 -70z m0 -65 c-3 -8 -6 -5 -6 6 -1 11 2 17 5 13 3 -3 4 -12
1 -19z m-10214 -390 c3 -51 2 -85 -5 -89 -5 -3 -49 -9 -96 -13 -348 -27 -790
-58 -1022 -71 -151 -9 -336 -20 -410 -26 -309 -23 -795 -48 -801 -41 -4 4 -10
48 -14 99 l-6 91 53 6 c29 3 132 10 228 16 96 6 238 15 315 20 77 6 340 21
585 35 379 21 575 30 1055 48 39 2 79 4 91 5 20 2 22 -4 27 -80z m8057 -88
c298 -14 1462 -92 1568 -106 l43 -5 -6 -92 c-4 -51 -10 -95 -14 -99 -6 -7
-402 17 -686 42 -66 5 -221 17 -345 25 -219 15 -764 60 -885 73 l-60 7 -3 74
c-2 41 -1 80 2 86 3 8 27 11 78 9 40 -2 179 -9 308 -14z m-11053 -147 c-2 -21
-4 -4 -4 37 0 41 2 58 4 38 2 -21 2 -55 0 -75z m13210 -165 c-2 -24 -4 -5 -4
42 0 47 2 66 4 43 2 -24 2 -62 0 -85z m-13200 15 c-3 -10 -5 -4 -5 12 0 17 2
24 5 18 2 -7 2 -21 0 -30z m2985 -248 c-2 -55 -7 -103 -10 -107 -8 -7 -473
-100 -737 -147 -507 -90 -1522 -251 -1541 -244 -17 6 -24 54 -24 168 l0 102
148 21 c147 21 308 46 672 102 107 16 359 52 560 80 201 28 480 68 620 90 140
21 269 38 285 37 l30 -2 -3 -100z m7834 -69 c71 -13 217 -38 324 -56 470 -77
1438 -245 1465 -254 14 -5 11 -226 -3 -252 -11 -21 -13 -21 -94 -7 -405 68
-1249 236 -1585 315 l-263 61 0 41 c0 23 -3 71 -7 109 -7 80 -19 77 163 43z
m-7832 -535 c3 -4 1 -34 -4 -66 -6 -35 -6 -83 -1 -120 16 -111 19 -108 -143
-159 -301 -95 -625 -189 -1041 -301 -145 -40 -212 -58 -375 -105 -123 -35
-276 -77 -618 -167 -34 -9 -65 -13 -68 -10 -4 3 -9 78 -12 166 l-5 159 44 12
c38 10 494 138 734 205 78 22 636 172 745 201 30 8 199 55 375 103 322 90 359
98 369 82z m-2927 -406 c0 -66 -1 -64 -7 25 -4 52 -8 129 -7 170 0 72 1 71 7
-25 4 -55 7 -131 7 -170z m10892 179 c146 -47 313 -101 371 -119 252 -80 389
-124 780 -251 228 -75 427 -140 442 -146 25 -9 26 -12 30 -106 3 -79 -7 -217
-17 -230 -5 -6 -277 79 -625 193 -190 63 -451 148 -580 191 -273 89 -670 232
-685 245 -6 6 -10 73 -10 160 0 122 3 149 14 149 8 0 134 -39 280 -86z m2208
4 c-2 -13 -4 -3 -4 22 0 25 2 35 4 23 2 -13 2 -33 0 -45z m-10 -145 c-3 -10
-5 -4 -5 12 0 17 2 24 5 18 2 -7 2 -21 0 -30z m0 -85 c-2 -13 -4 -3 -4 22 0
25 2 35 4 23 2 -13 2 -33 0 -45z m-13080 -70 c-3 -7 -5 -2 -5 12 0 14 2 19 5
13 2 -7 2 -19 0 -25z m0 -55 c-3 -10 -5 -4 -5 12 0 17 2 24 5 18 2 -7 2 -21 0
-30z m10 -45 c-3 -8 -6 -5 -6 6 -1 11 2 17 5 13 3 -3 4 -12 1 -19z m13030
-270 c-3 -8 -6 -5 -6 6 -1 11 2 17 5 13 3 -3 4 -12 1 -19z m-13000 -50 c-3 -8
-6 -5 -6 6 -1 11 2 17 5 13 3 -3 4 -12 1 -19z m13000 -15 c-3 -10 -5 -4 -5 12
0 17 2 24 5 18 2 -7 2 -21 0 -30z m0 -55 c-3 -8 -6 -5 -6 6 -1 11 2 17 5 13 3
-3 4 -12 1 -19z m-10152 -100 c3 -35 2 -94 -2 -132 l-8 -69 -110 -44 c-292
-118 -774 -282 -1375 -468 -206 -64 -444 -139 -528 -166 -84 -27 -160 -49
-169 -49 -13 0 -14 13 -9 88 4 48 3 111 -2 140 -11 64 -5 73 68 96 123 38 870
268 1075 331 234 72 727 231 910 295 61 21 118 39 127 39 13 1 18 -12 23 -61z
m10142 -5 c-2 -16 -4 -5 -4 22 0 28 2 40 4 28 2 -13 2 -35 0 -50z m-2144 -183
c286 -111 545 -208 747 -280 245 -88 684 -248 765 -279 l80 -31 0 -150 c0 -89
-4 -150 -10 -150 -9 0 -286 101 -853 312 -320 119 -701 275 -883 360 l-116 55
-7 75 c-7 77 1 188 14 188 4 0 122 -45 263 -100z m-10816 -37 c-2 -21 -4 -6
-4 32 0 39 2 55 4 38 2 -18 2 -50 0 -70z m10 -225 c-2 -29 -3 -6 -3 52 0 58 1
81 3 53 2 -29 2 -77 0 -105z m10 -110 c-2 -13 -4 -5 -4 17 -1 22 1 32 4 23 2
-10 2 -28 0 -40z m12900 -65 c-2 -16 -4 -3 -4 27 0 30 2 43 4 28 2 -16 2 -40
0 -55z m-10 -180 c-2 -16 -4 -3 -4 27 0 30 2 43 4 28 2 -16 2 -40 0 -55z
m-10068 -191 c7 -24 9 -51 6 -61 -4 -13 -59 -42 -168 -89 -433 -188 -1223
-497 -1717 -672 -268 -95 -300 -104 -312 -92 -6 6 -12 63 -13 141 -2 112 0
131 14 136 9 4 84 31 166 60 249 88 1137 423 1870 704 l130 50 6 -67 c4 -37
12 -86 18 -110z m-2782 -9 c-3 -10 -5 -2 -5 17 0 19 2 27 5 18 2 -10 2 -26 0
-35z m10763 -93 c398 -178 468 -210 755 -338 410 -182 503 -223 645 -281 69
-29 134 -56 146 -60 19 -8 20 -16 19 -128 -3 -163 -3 -163 -20 -163 -24 0
-471 188 -764 322 -25 11 -102 46 -171 78 -367 167 -871 413 -908 443 -10 8
-12 25 -8 56 3 25 8 80 12 123 l6 76 42 -18 c22 -9 133 -59 246 -110z m-10753
-72 c-2 -18 -4 -6 -4 27 0 33 2 48 4 33 2 -15 2 -42 0 -60z m10 -70 c-3 -8 -6
-5 -6 6 -1 11 2 17 5 13 3 -3 4 -12 1 -19z m12790 -100 c-2 -13 -4 -5 -4 17
-1 22 1 32 4 23 2 -10 2 -28 0 -40z m-12780 -50 c-3 -7 -5 -2 -5 12 0 14 2 19
5 13 2 -7 2 -19 0 -25z m12770 -95 c-2 -16 -4 -5 -4 22 0 28 2 40 4 28 2 -13
2 -35 0 -50z m-12760 -20 c-2 -16 -4 -3 -4 27 0 30 2 43 4 28 2 -16 2 -40 0
-55z m10 -105 c-3 -7 -5 -2 -5 12 0 14 2 19 5 13 2 -7 2 -19 0 -25z m2773
-165 c0 -38 3 -98 6 -135 l7 -67 -44 -19 c-134 -57 -846 -307 -1224 -429 -200
-64 -861 -284 -898 -299 -19 -7 -40 136 -35 236 l3 75 325 107 c179 59 377
123 440 143 63 20 273 88 465 150 193 63 458 148 590 190 132 42 263 85 290
95 75 28 75 29 75 -47z m7738 -132 c70 -27 235 -90 367 -139 132 -50 294 -111
360 -137 66 -25 246 -94 400 -152 154 -58 350 -134 435 -167 l155 -62 3 -74
c5 -94 -16 -243 -32 -237 -206 85 -429 172 -611 242 -562 214 -1209 484 -1219
510 -5 15 5 265 11 265 2 0 61 -22 131 -49z m2199 -78 c-3 -10 -5 -2 -5 17 0
19 2 27 5 18 2 -10 2 -26 0 -35z m-10 -95 c-3 -8 -6 -5 -6 6 -1 11 2 17 5 13
3 -3 4 -12 1 -19z m-12650 -95 c-2 -21 -4 -4 -4 37 0 41 2 58 4 38 2 -21 2
-55 0 -75z m12650 20 c-3 -10 -5 -2 -5 17 0 19 2 27 5 18 2 -10 2 -26 0 -35z
m-12638 -140 c-1 -86 -6 -81 -12 15 -2 34 0 62 5 62 4 0 7 -35 7 -77z m2723
-250 c3 -49 3 -117 -1 -153 l-6 -64 -90 -44 c-406 -200 -1198 -545 -1799 -782
-161 -64 -210 -80 -216 -70 -19 31 -32 293 -15 308 6 5 98 44 205 87 419 166
1183 490 1650 699 129 57 242 105 251 105 13 1 17 -15 21 -86z m8011 -275
c387 -199 924 -465 1227 -608 74 -35 140 -69 146 -74 13 -14 1 -293 -13 -307
-15 -15 -163 54 -763 353 -509 253 -989 511 -1017 546 -17 21 -18 302 -2 302
6 0 196 -95 422 -212z m1864 105 c-2 -16 -4 -5 -4 22 0 28 2 40 4 28 2 -13 2
-35 0 -50z m-10 -170 c-2 -16 -4 -3 -4 27 0 30 2 43 4 28 2 -16 2 -40 0 -55z
m-12510 -375 c-2 -13 -4 -3 -4 22 0 25 2 35 4 23 2 -13 2 -33 0 -45z m10 -150
c-2 -18 -4 -6 -4 27 0 33 2 48 4 33 2 -15 2 -42 0 -60z m12460 0 c-2 -13 -4
-5 -4 17 -1 22 1 32 4 23 2 -10 2 -28 0 -40z m-12450 -110 c-2 -13 -4 -3 -4
22 0 25 2 35 4 23 2 -13 2 -33 0 -45z m12440 -50 c-2 -13 -4 -5 -4 17 -1 22 1
32 4 23 2 -10 2 -28 0 -40z m-12037 -90 c0 -5 -7 -8 -15 -8 -8 0 -15 4 -15 9
0 5 -2 24 -6 42 l-5 34 20 -35 c11 -19 20 -38 21 -42z m11715 -122 c-4 -20
-11 -36 -16 -36 -12 0 -11 10 2 49 14 41 22 34 14 -13z m-12078 -168 c-2 -18
-4 -4 -4 32 0 36 2 50 4 33 2 -18 2 -48 0 -65z m15 -156 c2 -28 0 -52 -4 -52
-5 0 -7 35 -7 78 2 78 6 69 11 -26z m12345 6 c-2 -18 -4 -6 -4 27 0 33 2 48 4
33 2 -15 2 -42 0 -60z m-12340 -130 c-3 -8 -6 -5 -6 6 -1 11 2 17 5 13 3 -3 4
-12 1 -19z m12330 -75 c-2 -16 -4 -3 -4 27 0 30 2 43 4 28 2 -16 2 -40 0 -55z"/>
<path d="M29603 33094 c-34 -17 -69 -57 -96 -110 -9 -17 -176 -435 -372 -929
-234 -587 -362 -923 -372 -973 -26 -124 3 -228 83 -309 60 -59 98 -77 170 -77
51 -1 66 3 98 27 20 16 48 46 63 68 30 46 734 1820 753 1898 27 113 -5 249
-79 333 -66 75 -176 107 -248 72z"/>
<path d="M30615 33098 c-39 -21 -77 -63 -102 -112 -32 -63 -716 -1785 -737
-1856 -20 -69 -20 -183 0 -243 32 -95 157 -197 241 -197 63 0 129 43 173 115
23 38 718 1793 736 1860 21 75 18 184 -6 249 -41 107 -151 196 -242 196 -24 0
-52 -6 -63 -12z"/>
<path d="M46296 32515 c13 -79 30 -211 39 -292 9 -82 18 -159 21 -173 2 -14 8
-126 13 -250 6 -124 12 -232 15 -240 18 -56 15 -576 -3 -553 -4 4 -18 35 -30
68 -60 152 -169 333 -310 515 -165 212 -450 546 -638 747 -73 78 -133 145
-133 150 0 4 -35 44 -77 87 l-77 80 -28 -60 c-15 -32 -37 -84 -48 -114 -12
-30 -27 -62 -34 -70 -7 -8 -23 -44 -35 -80 -23 -64 -116 -290 -132 -320 -5 -8
-24 -49 -42 -90 -35 -75 -70 -151 -128 -277 -18 -38 -44 -95 -59 -128 -15 -33
-39 -87 -54 -120 -48 -105 -57 -125 -76 -178 -47 -129 -161 -420 -185 -472 -8
-16 -34 -73 -58 -125 -25 -52 -60 -129 -80 -170 -64 -137 -84 -184 -122 -280
-20 -52 -42 -108 -50 -125 -26 -60 -64 -161 -70 -186 -6 -23 1 -32 53 -75 32
-27 69 -64 82 -83 21 -33 22 -36 6 -60 -32 -49 -133 -256 -140 -286 -4 -16
-14 -38 -23 -47 -8 -9 -12 -21 -9 -26 3 -6 41 -25 84 -42 98 -41 176 -80 255
-129 34 -21 89 -53 122 -71 33 -18 74 -41 90 -50 17 -9 52 -29 80 -44 71 -40
130 -81 215 -151 41 -33 118 -94 170 -134 52 -40 111 -87 130 -105 56 -51 201
-169 258 -210 53 -38 54 -39 185 -47 140 -10 148 -11 437 -59 102 -16 246 -39
320 -51 202 -31 473 -84 557 -108 29 -8 33 -6 61 32 16 23 44 71 62 107 62
125 144 260 161 265 10 3 67 6 127 7 61 0 114 3 119 7 16 10 112 140 130 174
9 18 60 102 113 187 53 85 109 178 125 205 73 130 107 193 122 229 30 72 201
400 248 476 21 34 66 116 137 250 19 36 50 90 67 120 18 30 49 84 68 120 76
138 85 155 93 165 5 6 24 39 42 75 53 101 88 161 119 207 16 23 29 44 29 47 0
3 16 30 35 60 19 30 35 57 35 60 0 3 16 30 35 60 19 30 35 57 35 59 0 3 18 36
40 73 22 38 40 72 40 77 0 4 -12 7 -27 6 -16 0 -82 4 -148 10 -153 13 -472 14
-690 1 -307 -19 -518 -49 -828 -120 -96 -22 -243 -51 -328 -65 -85 -14 -180
-30 -212 -37 -32 -6 -60 -9 -62 -6 -7 7 115 156 216 262 97 103 302 290 424
387 39 31 86 72 106 91 62 59 331 271 399 315 87 55 118 81 131 105 11 20 9
21 -32 14 -109 -17 -464 -219 -691 -393 -139 -106 -383 -338 -485 -460 -20
-24 -38 -43 -42 -43 -3 0 -6 80 -7 178 0 248 -22 382 -138 862 -46 190 -105
374 -129 397 -10 10 -7 -22 9 -132z m-910 -474 c69 -80 166 -200 217 -269 210
-283 254 -342 334 -437 46 -55 114 -152 150 -215 36 -63 97 -167 135 -231 l68
-116 -38 -84 c-33 -72 -123 -296 -194 -489 -12 -30 -27 -68 -34 -85 -7 -16
-60 -153 -118 -303 -89 -229 -184 -458 -276 -667 -10 -22 -32 -74 -50 -115
-18 -41 -40 -93 -50 -115 -52 -117 -130 -310 -130 -321 0 -8 -6 -14 -12 -14
-20 1 -87 63 -116 107 -30 45 -245 294 -326 377 -89 92 -189 199 -246 265 -30
35 -77 81 -105 103 -27 22 -106 92 -173 155 -68 64 -165 151 -215 193 -51 43
-102 88 -114 101 l-22 24 73 155 c40 85 115 241 165 345 51 105 118 244 148
310 30 66 78 167 105 225 28 58 64 134 80 169 16 36 52 111 79 169 27 57 49
106 49 107 0 2 22 50 49 107 42 88 294 653 338 758 l15 35 45 -50 c24 -28 100
-115 169 -194z m3061 -1133 c-8 -18 -46 -85 -84 -148 -39 -63 -121 -212 -183
-330 -62 -118 -138 -258 -168 -310 -50 -85 -172 -332 -172 -347 0 -15 -303
-585 -390 -733 -53 -91 -121 -207 -150 -258 l-53 -93 -101 8 c-154 12 -585 9
-731 -5 -71 -8 -200 -24 -285 -37 -85 -13 -191 -29 -235 -35 -85 -12 -262 -53
-308 -72 -15 -6 -30 -8 -33 -6 -3 3 9 35 26 72 16 37 30 68 30 70 0 2 20 46
44 98 24 51 54 116 66 143 13 28 49 106 80 175 145 317 417 1000 587 1475 l28
79 157 32 c87 18 213 46 280 63 598 147 882 187 1361 190 l247 1 -13 -32z
m-3939 -1645 c175 -175 343 -345 373 -378 85 -93 152 -175 148 -179 -2 -2 -47
27 -99 66 -129 95 -307 214 -415 278 -49 30 -152 100 -227 157 -76 56 -159
114 -185 129 -27 15 -49 28 -51 30 -2 1 15 35 38 75 22 41 48 89 57 107 9 17
22 32 29 32 7 0 156 -143 332 -317z m-461 31 c-3 -3 -12 -4 -19 -1 -8 3 -5 6
6 6 11 1 17 -2 13 -5z m2829 -811 c-2 -5 -24 -37 -48 -73 -24 -36 -54 -86 -68
-112 -29 -56 -31 -56 -149 -28 -133 32 -272 50 -466 61 -376 20 -486 27 -491
32 -7 7 148 33 331 57 88 12 196 26 240 31 239 31 664 52 651 32z"/>
<path d="M25519 32305 c-99 -32 -190 -150 -218 -283 -16 -75 -14 -191 5 -271
27 -123 107 -222 202 -252 24 -8 172 -14 432 -19 435 -7 440 -8 570 -76 231
-121 377 -362 453 -749 l21 -110 3 -3062 3 -3062 -817 -3 -818 -3 -57 -28
c-122 -60 -188 -195 -188 -382 0 -162 43 -281 129 -356 83 -73 -2 -69 1432
-69 893 0 1304 3 1339 11 93 20 180 107 216 215 15 47 19 87 19 199 -1 122 -4
147 -24 198 -47 119 -127 189 -236 207 -33 5 -135 10 -227 10 l-168 0 0 3028
c0 1929 -4 3081 -10 3177 -41 600 -204 1038 -495 1330 -172 173 -374 281 -635
341 -107 24 -860 31 -931 9z"/>
<path d="M31777 32306 c-188 -68 -278 -365 -186 -611 56 -149 162 -215 345
-215 l64 0 2 -3827 3 -3828 22 -65 c44 -130 119 -208 222 -232 110 -25 225 34
288 148 68 124 63 -189 63 4002 l0 3803 473 -3 472 -3 73 -27 c292 -106 481
-376 569 -808 16 -79 17 -318 23 -3455 4 -2792 8 -3377 19 -3410 55 -163 152
-249 281 -249 75 0 128 23 186 81 42 42 89 135 104 207 7 35 9 1104 7 3461 -3
3177 -4 3418 -20 3530 -78 537 -229 888 -496 1156 -181 181 -350 274 -611 335
-68 16 -156 18 -970 21 -736 2 -902 0 -933 -11z"/>
<path d="M35867 32306 c-198 -71 -283 -391 -169 -636 33 -70 95 -138 152 -164
44 -20 63 -21 625 -26 l580 -5 72 -26 c276 -101 445 -340 525 -743 l23 -111 5
-3375 5 -3375 22 -65 c45 -131 115 -206 214 -230 159 -38 301 82 345 290 13
62 14 508 11 3433 -3 3125 -4 3370 -20 3482 -76 522 -239 912 -497 1187 -191
205 -440 335 -702 368 -130 16 -1143 13 -1191 -4z"/>
<path d="M39569 32306 c-94 -33 -150 -91 -190 -195 -26 -68 -37 -245 -20 -335
24 -127 92 -226 184 -267 50 -22 65 -24 346 -29 l293 -5 -41 -33 c-23 -18 -64
-63 -92 -100 -125 -165 -204 -409 -258 -792 -28 -197 -651 -6494 -651 -6575 0
-127 41 -244 112 -322 52 -55 110 -77 187 -70 142 12 255 128 290 297 7 30
153 1500 326 3265 173 1766 324 3265 335 3333 84 513 202 783 404 922 92 63
143 75 316 75 154 0 155 0 223 -32 129 -61 254 -217 328 -406 39 -102 74 -234
102 -382 l22 -120 3 -3057 2 -3057 -387 -3 c-434 -3 -431 -3 -506 -76 -80 -77
-121 -196 -120 -352 2 -210 82 -354 219 -396 73 -22 1128 -21 1202 1 101 30
163 115 188 254 11 63 13 627 14 3207 0 2073 -4 3192 -11 3310 -29 506 -119
902 -276 1219 -215 433 -529 673 -953 725 -132 16 -1545 13 -1591 -4z"/>
<path d="M32961 22264 l-31 -26 0 -940 0 -940 29 -29 29 -29 315 0 c173 0 339
4 368 10 133 24 240 112 290 237 l24 58 3 816 3 817 -31 26 c-18 14 -40 26
-51 26 -32 0 -74 -26 -87 -55 -9 -19 -12 -216 -12 -779 0 -826 1 -815 -60
-888 -16 -20 -49 -46 -73 -57 -41 -20 -60 -21 -305 -21 l-262 0 0 190 c0 105
3 190 8 190 4 0 40 5 81 10 141 19 236 83 295 200 54 108 57 152 54 682 -3
467 -3 478 -24 498 -11 11 -36 23 -55 26 -28 5 -41 1 -67 -20 l-31 -27 -4
-497 c-3 -554 -3 -546 -72 -618 -41 -43 -91 -64 -152 -64 l-33 0 0 574 c0 342
-4 585 -10 600 -10 27 -56 56 -89 56 -11 0 -33 -12 -50 -26z"/>
<path d="M38831 22264 l-31 -26 0 -940 0 -940 29 -29 29 -29 315 0 c173 0 339
4 368 10 133 24 240 112 290 237 l24 58 3 816 3 817 -31 26 c-18 14 -40 26
-51 26 -32 0 -74 -26 -87 -55 -9 -19 -12 -216 -12 -779 0 -826 1 -815 -60
-888 -16 -20 -49 -46 -73 -57 -41 -20 -60 -21 -305 -21 l-262 0 0 190 c0 105
3 190 8 190 4 0 40 5 81 10 141 19 236 83 295 200 54 108 57 152 54 682 -3
467 -3 478 -24 498 -11 11 -36 23 -55 26 -28 5 -41 1 -67 -20 l-31 -27 -4
-497 c-3 -554 -3 -546 -72 -618 -41 -43 -91 -64 -152 -64 l-33 0 0 574 c0 342
-4 585 -10 600 -10 27 -56 56 -89 56 -11 0 -33 -12 -50 -26z"/>
<path d="M26005 22268 c-11 -6 -25 -19 -32 -27 -13 -17 -17 -79 -7 -106 12
-29 60 -45 138 -45 l75 0 3 -344 c3 -321 4 -345 22 -365 44 -48 134 -31 155
30 7 21 11 158 11 404 0 246 -4 383 -11 404 -18 51 -50 61 -201 61 -81 0 -141
-5 -153 -12z"/>
<path d="M26791 22266 c-26 -15 -50 -51 -51 -79 0 -30 27 -72 55 -85 14 -7 53
-12 85 -12 l59 0 -39 -56 c-66 -95 -96 -212 -106 -424 -8 -149 5 -271 51 -500
46 -225 59 -330 52 -428 -10 -138 -48 -180 -172 -192 -96 -9 -125 -32 -125
-96 0 -35 5 -47 32 -69 31 -26 37 -27 108 -22 100 7 160 30 218 82 91 82 129
205 117 380 -6 99 -16 165 -71 460 -58 314 -27 660 70 788 50 66 90 77 269 77
l157 0 0 -873 c0 -863 0 -873 20 -895 11 -12 32 -25 46 -28 35 -9 92 19 104
52 15 38 13 1856 -1 1887 -6 14 -22 30 -36 36 -37 17 -810 15 -842 -3z"/>
<path d="M27982 22255 c-44 -37 -45 -93 -3 -136 l29 -29 188 0 c111 0 202 -5
225 -11 50 -16 105 -61 132 -112 l22 -42 5 -792 c5 -783 5 -793 26 -813 11
-11 36 -23 55 -26 28 -5 41 -1 67 21 l33 27 -3 812 -3 811 -23 55 c-48 113
-125 189 -236 233 -44 18 -79 21 -267 25 l-215 4 -32 -27z"/>
<path d="M29128 22265 c-35 -20 -52 -71 -37 -113 18 -52 50 -62 201 -62 112 0
140 -4 178 -21 56 -25 86 -53 113 -104 22 -40 22 -45 25 -757 l3 -717 -265 -3
c-261 -3 -266 -3 -288 -26 -32 -32 -32 -102 0 -134 l23 -23 439 0 439 0 23 23
c32 32 32 102 0 134 -19 19 -35 23 -102 26 l-80 4 0 702 c0 748 -2 783 -50
876 -52 102 -158 176 -284 199 -89 16 -305 14 -338 -4z"/>
<path d="M30228 22265 c-14 -8 -31 -30 -37 -48 -23 -69 24 -127 104 -127 l35
0 0 -869 c0 -859 0 -869 20 -894 27 -34 78 -44 118 -23 16 8 32 23 36 31 3 9
6 408 6 887 l0 870 168 -4 c185 -3 202 -8 266 -74 68 -70 66 -44 66 -879 0
-525 3 -762 11 -784 21 -61 111 -78 155 -30 18 20 19 51 19 828 l0 806 -23 57
c-50 125 -134 208 -247 245 -72 24 -656 31 -697 8z"/>
<path d="M32155 22268 c-11 -6 -25 -19 -32 -27 -13 -17 -17 -79 -7 -106 12
-29 60 -45 138 -45 l75 0 3 -344 c3 -321 4 -345 22 -365 44 -48 134 -31 155
30 7 21 11 158 11 404 0 246 -4 383 -11 404 -18 51 -50 61 -201 61 -81 0 -141
-5 -153 -12z"/>
<path d="M34420 22273 c-82 -30 -81 -160 2 -177 13 -3 51 -7 85 -9 80 -4 128
-35 168 -108 l30 -54 3 -516 3 -517 -241 -228 c-159 -152 -243 -239 -250 -260
-21 -61 23 -114 93 -114 42 0 16 -22 377 327 l76 73 68 -177 c43 -113 77 -186
93 -200 56 -52 153 -11 153 64 0 20 -37 127 -90 257 l-90 222 0 515 c0 306 -4
540 -11 579 -27 172 -129 285 -287 319 -55 11 -155 14 -182 4z"/>
<path d="M35222 22255 c-44 -37 -45 -93 -3 -136 l29 -29 188 0 c111 0 202 -5
225 -11 50 -16 105 -61 132 -112 l22 -42 5 -792 c5 -783 5 -793 26 -813 11
-11 36 -23 55 -26 28 -5 41 -1 67 21 l33 27 -3 812 -3 811 -23 55 c-48 113
-125 189 -236 233 -44 18 -79 21 -267 25 l-215 4 -32 -27z"/>
<path d="M36948 22265 c-35 -20 -52 -71 -37 -113 18 -52 50 -62 201 -62 112 0
140 -4 178 -21 56 -25 86 -53 113 -104 22 -40 22 -45 25 -757 l3 -717 -265 -3
c-261 -3 -266 -3 -288 -26 -32 -32 -32 -102 0 -134 l23 -23 439 0 439 0 23 23
c32 32 32 102 0 134 -19 19 -35 23 -102 26 l-80 4 0 702 c0 748 -2 783 -50
876 -52 102 -158 176 -284 199 -89 16 -305 14 -338 -4z"/>
<path d="M38040 22267 c-34 -17 -53 -61 -46 -101 10 -54 37 -70 122 -74 l74
-4 2 -874 c3 -867 3 -874 24 -894 11 -11 36 -23 55 -26 28 -5 41 -1 67 21 l32
27 0 943 0 943 -31 26 c-29 25 -36 26 -152 26 -78 0 -131 -5 -147 -13z"/>
<path d="M40259 22251 c-37 -38 -39 -88 -5 -128 23 -27 30 -28 128 -33 90 -4
100 -7 81 -18 -27 -15 -67 -82 -83 -137 -6 -22 -57 -380 -114 -795 -94 -682
-103 -758 -91 -787 8 -18 26 -38 40 -45 35 -16 93 0 116 32 14 20 39 188 118
770 59 437 108 771 120 808 36 117 102 172 206 172 105 0 180 -66 204 -181 7
-33 11 -289 11 -734 l0 -685 -120 0 c-140 0 -172 -11 -190 -64 -14 -45 7 -102
45 -116 37 -14 378 -13 408 1 14 6 30 22 36 36 18 39 15 1464 -4 1566 -27 152
-101 264 -208 317 -90 44 -142 50 -419 50 l-250 0 -29 -29z"/>
</g>
</svg>
